<?xml version="1.0" encoding="UTF-8" standalone="no"?>
<!-- Created with Inkscape (http://www.inkscape.org/) -->

<svg
   width="1920"
   height="1080"
   viewBox="0 0 1920 1080"
   version="1.1"
   id="svg1"
   xml:space="preserve"
   xmlns="http://www.w3.org/2000/svg"
   xmlns:svg="http://www.w3.org/2000/svg"
   xmlns:rdf="http://www.w3.org/1999/02/22-rdf-syntax-ns#"
   xmlns:cc="http://creativecommons.org/ns#"
   xmlns:dc="http://purl.org/dc/elements/1.1/"><title
     id="title606">Sum of n^3, where n=1..9, equals 2025</title><defs
     id="defs1" /><g
     id="layer1"
     transform="matrix(0.99947954,0,0,0.99907474,-0.23542047,-0.23491883)"><rect
       style="fill:#191724;fill-opacity:1;stroke:#191724;stroke-opacity:1"
       id="rect606"
       width="1920"
       height="1080"
       x="0.73554307"
       y="0.73513639" /><g
       transform="matrix(0.38559456,0,0,-0.38559456,476.49908,787.5108)"
       fill="#000000"
       stroke="none"
       id="g14"
       style="fill:#e0def4;fill-opacity:1"><path
         d="m 265,1225 c -31,-30 -32,-64 -4,-94 17,-18 29,-22 55,-18 28,5 32,3 27,-11 -10,-28 -25,-42 -44,-42 -11,0 -18,5 -17,12 2,6 -5,14 -14,16 -11,2 -18,-2 -18,-10 0,-22 22,-38 50,-38 50,1 80,44 80,115 0,51 -32,95 -70,95 -11,0 -32,-11 -45,-25 z m 76,-22 c 14,-38 -3,-75 -34,-71 -17,2 -23,11 -25,36 -6,59 40,85 59,35 z"
         id="path1"
         style="fill:#e0def4;fill-opacity:1" /><path
         d="M 30,909 C 30,903 78,833 136,754 194,675 240,604 237,597 234,591 187,532 131,468 75,404 30,346 30,340 c 0,-7 84,-10 253,-10 h 254 l 26,68 c 15,37 27,71 27,75 0,15 -17,6 -29,-17 -7,-13 -32,-34 -55,-47 -38,-22 -53,-24 -225,-27 l -184,-4 88,104 c 49,56 97,113 108,125 l 19,22 -96,130 c -53,72 -96,134 -96,137 0,11 311,-4 353,-16 20,-6 53,-27 73,-47 19,-19 37,-33 40,-30 3,2 -6,30 -20,61 l -25,56 H 286 C 107,920 30,917 30,909 Z"
         id="path2"
         style="fill:#e0def4;fill-opacity:1" /><path
         d="m 982,884 c -27,-19 -29,-44 -2,-44 13,0 20,7 20,20 0,24 37,28 46,6 8,-22 -14,-56 -36,-56 -30,0 -24,-18 8,-22 24,-3 27,-7 27,-38 0,-31 -3,-35 -27,-38 -24,-3 -28,0 -28,22 0,30 -27,36 -37,9 -8,-21 31,-53 66,-53 59,0 96,67 56,100 -11,9 -13,16 -5,24 5,5 10,23 10,38 0,21 -6,31 -26,38 -35,14 -46,13 -72,-6 z"
         id="path3"
         style="fill:#e0def4;fill-opacity:1" /><path
         d="m 1726,789 c -41,-32 -34,-99 8,-83 19,7 21,41 4,47 -10,3 -10,7 1,20 30,37 81,8 81,-44 0,-40 -13,-63 -72,-127 -26,-30 -48,-58 -48,-63 0,-5 35,-9 79,-9 h 79 l 6,31 c 8,42 8,49 -4,49 -5,0 -10,-9 -10,-20 0,-17 -7,-20 -51,-20 h -50 l 60,58 c 54,51 61,62 61,95 0,76 -83,114 -144,66 z"
         id="path4"
         style="fill:#e0def4;fill-opacity:1" /><path
         d="m 1941,791 c -54,-54 -53,-218 2,-256 22,-16 63,-20 92,-9 30,12 45,60 45,143 0,71 -3,83 -26,110 -31,37 -83,42 -113,12 z m 89,-20 c 5,-11 10,-60 10,-110 0,-79 -3,-94 -21,-112 -48,-48 -87,38 -73,161 3,30 11,61 16,68 16,19 56,14 68,-7 z"
         id="path5"
         style="fill:#e0def4;fill-opacity:1" /><path
         d="m 2146,789 c -41,-32 -34,-99 8,-83 19,7 21,41 4,47 -10,3 -10,7 1,20 30,37 81,8 81,-44 0,-40 -13,-63 -72,-127 -26,-30 -48,-58 -48,-63 0,-5 35,-9 79,-9 h 79 l 6,31 c 8,42 8,49 -4,49 -5,0 -10,-9 -10,-20 0,-17 -7,-20 -51,-20 h -50 l 60,58 c 54,51 61,62 61,95 0,76 -83,114 -144,66 z"
         id="path6"
         style="fill:#e0def4;fill-opacity:1" /><path
         d="m 2350,733 c 0,-73 7,-86 30,-58 32,39 73,6 73,-60 0,-24 -5,-51 -13,-59 -14,-18 -47,-21 -70,-6 -13,8 -13,13 -2,30 15,25 8,40 -19,40 -14,0 -19,-7 -19,-30 0,-42 31,-70 79,-70 50,0 91,43 91,97 0,52 -48,98 -95,90 -33,-5 -35,-4 -35,24 0,27 3,29 38,29 33,0 72,22 72,41 0,2 -29,4 -65,4 h -65 z"
         id="path7"
         style="fill:#e0def4;fill-opacity:1" /><path
         d="m 716,698 c -18,-25 -21,-58 -6,-58 6,0 10,8 10,19 0,10 7,24 15,31 20,16 20,-6 0,-80 -19,-70 -19,-90 0,-90 8,0 18,17 25,43 20,81 36,112 63,127 39,21 49,1 31,-59 -26,-85 -16,-119 30,-107 30,7 63,76 36,76 -5,0 -10,-6 -10,-13 0,-19 -27,-53 -35,-45 -4,4 0,29 10,57 22,68 17,103 -16,115 -19,6 -35,5 -56,-6 -24,-12 -31,-12 -41,-1 -19,19 -39,16 -56,-9 z"
         id="path8"
         style="fill:#e0def4;fill-opacity:1" /><path
         d="m 1270,675 c 0,-13 22,-15 140,-15 118,0 140,2 140,15 0,13 -22,15 -140,15 -118,0 -140,-2 -140,-15 z"
         id="path9"
         style="fill:#e0def4;fill-opacity:1" /><path
         d="m 1277,603 c -19,-19 5,-23 133,-23 118,0 140,2 140,15 0,13 -21,15 -133,15 -74,0 -137,-3 -140,-7 z"
         id="path10"
         style="fill:#e0def4;fill-opacity:1" /><path
         d="m 535,230 c -3,-5 -15,-10 -26,-10 -10,0 -19,-4 -19,-10 0,-5 9,-10 20,-10 18,0 20,-7 20,-70 0,-64 -2,-72 -22,-80 -18,-7 -9,-9 37,-9 46,0 55,2 38,9 -22,9 -23,15 -23,100 0,82 -8,107 -25,80 z"
         id="path11"
         style="fill:#e0def4;fill-opacity:1" /><path
         d="M 20,149 C 8,127 7,120 18,120 c 5,0 14,10 21,23 12,24 12,25 -6,-82 -9,-51 18,-35 34,20 14,48 50,86 66,70 6,-6 5,-21 -2,-42 -6,-17 -11,-40 -11,-49 0,-39 62,-31 73,10 7,27 -6,26 -27,-2 -17,-23 -17,-23 -10,7 4,17 8,44 8,60 l 1,30 -68,1 c -56,1 -69,-2 -77,-17 z"
         id="path12"
         style="fill:#e0def4;fill-opacity:1" /><path
         d="m 230,145 c 0,-13 15,-15 108,-13 63,2 107,7 107,13 0,6 -44,11 -107,13 -93,2 -108,0 -108,-13 z"
         id="path13"
         style="fill:#e0def4;fill-opacity:1" /><path
         d="m 230,80 c 0,-6 43,-10 110,-10 67,0 110,4 110,10 0,6 -43,10 -110,10 -67,0 -110,-4 -110,-10 z"
         id="path14"
         style="fill:#e0def4;fill-opacity:1" /></g></g><metadata
     id="metadata606"><rdf:RDF><cc:Work
         rdf:about=""><dc:title>Sum of n^3, where n=1..9, equals 2025</dc:title><dc:date>2025-01-02</dc:date><dc:creator><cc:Agent><dc:title>kirasok</dc:title></cc:Agent></dc:creator><dc:description>I found on Reddit that 2025 is the sum of cubes from 1 to 9 and decided to make wallpaper in Rose Pine colors with it

https://old.reddit.com/r/mathmemes/comments/1hpidxd/next_year_will_be_2025_which_is_the_sum_of_the/</dc:description><cc:license
           rdf:resource="http://creativecommons.org/publicdomain/zero/1.0/" /></cc:Work><cc:License
         rdf:about="http://creativecommons.org/publicdomain/zero/1.0/"><cc:permits
           rdf:resource="http://creativecommons.org/ns#Reproduction" /><cc:permits
           rdf:resource="http://creativecommons.org/ns#Distribution" /><cc:permits
           rdf:resource="http://creativecommons.org/ns#DerivativeWorks" /></cc:License></rdf:RDF></metadata></svg>
